{"title":"Wisin Y Yandel Ft. Chris Brown And T-Pain - Algo Me Gusta De Ti","uid":7541765,"size":152306905,"categoryP":"video","categoryS":"music_videos","magnet":"?xt=urn:btih:ee6d19475817ae929d6113f494f4b013ae6cc1e5&amp;dn=Wisin+Y+Yandel+Ft.+Chris+Brown+And+T-Pain+-+Algo+Me+Gusta+De+Ti&amp;tr=udp%3A%2F%2Ftracker.openbittorrent.com%3A80&amp;tr=udp%3A%2F%2Fopen.demonii.com%3A1337&amp;tr=udp%3A%2F%2Ftracker.coppersurfer.tk%3A6969&amp;tr=udp%3A%2F%2Fexodus.desync.com%3A6969","seeders":0,"leechers":0,"uploader":"MusicVideos-HQ","files":1,"time":1345234928,"description":"General\n\nFormat                         : MPEG-4\nFormat profile                 : Base Media\nCodec ID                       : isom\nFile size                      : 145 MiB\nDuration                       : 4mn 55s\nOverall bit rate mode          : Variable\nOverall bit rate               : 4 119 Kbps\nEncoded date                   : UTC 2012-08-17 17:47:55\nTagged date                    : UTC 2012-08-17 17:47:55\n\nVideo\nID                             : 1\nFormat                         : AVC\nFormat/Info                    : Advanced Video Codec\nFormat profile                 : &lt;a class=&quot;__cf_email__&quot; href=&quot;/cdn-cgi/l/email-protection&quot; data-cfemail=&quot;ce86a7a9a68e82fde0fe&quot;&gt;[email&amp;#160;protected]&lt;/a&gt;&lt;script data-cfhash='f9e31' type=&quot;text/javascript&quot;&gt;\n/* &lt;![CDATA[ */!function(){try{var t=&quot;currentScript&quot;in document?document.currentScript:function(){for(var t=document.getElementsByTagName(&quot;script&quot;),e=t.length;e--;)if(t[e].getAttribute(&quot;data-cfhash&quot;))return t[e]}();if(t&amp;&amp;t.previousSibling){var e,r,n,i,c=t.previousSibling,a=c.getAttribute(&quot;data-cfemail&quot;);if(a){for(e=&quot;&quot;,r=parseInt(a.substr(0,2),16),n=2;a.length-n;n+=2)i=parseInt(a.substr(n,2),16)^r,e+=String.fromCharCode(i);e=document.createTextNode(e),c.parentNode.replaceChild(e,c)}t.parentNode.removeChild(t);}}catch(u){}}()/* ]]&gt; */&lt;/script&gt;\nFormat settings, CABAC         : Yes\nFormat settings, ReFrames      : 2 frames\nCodec ID                       : avc1\nCodec ID/Info                  : Advanced Video Coding\nDuration                       : 4mn 55s\nBit rate                       : 3 981 Kbps\nMaximum bit rate               : 9 761 Kbps\nWidth                          : 720 pixels\nHeight                         : 480 pixels\nDisplay aspect ratio           : 16:9\nOriginal display aspect ratio  : 16:9\nFrame rate mode                : Constant\nFrame rate                     : 23.976 fps\nStandard                       : NTSC\nColor space                    : YUV\nChroma subsampling             : 4:2:0\nBit depth                      : 8 bits\nScan type                      : Progressive\nBits/(Pixel*Frame)             : 0.480\nStream size                    : 138 MiB (95%)\n\n\nAudio\nID                             : 2\nFormat                         : AAC\nFormat/Info                    : Advanced Audio Codec\nFormat profile                 : LC\nCodec ID                       : 40\nDuration                       : 4mn 55s\nBit rate mode                  : Variable\nBit rate                       : 192 Kbps\nMaximum bit rate               : 216 Kbps\nChannel(s)                     : 2 channels\nChannel positions              : Front: L R\nSampling rate                  : 44.1 KHz\nCompression mode               : Lossy\nDelay relative to video        : -833ms\nStream size                    : 6.69 MiB (5%)","torrent":{"xt":"urn:btih:ee6d19475817ae929d6113f494f4b013ae6cc1e5","amp;dn":"Wisin+Y+Yandel+Ft.+Chris+Brown+And+T-Pain+-+Algo+Me+Gusta+De+Ti","amp;tr":["udp%3A%2F%2Ftracker.openbittorrent.com%3A80","udp%3A%2F%2Fopen.demonii.com%3A1337","udp%3A%2F%2Ftracker.coppersurfer.tk%3A6969","udp%3A%2F%2Fexodus.desync.com%3A6969"],"infoHash":"ee6d19475817ae929d6113f494f4b013ae6cc1e5","infoHashBuffer":{"type":"Buffer","data":[238,109,25,71,88,23,174,146,157,97,19,244,148,244,176,19,174,108,193,229]},"announce":[],"urlList":[]}}